<?xml version="1.0" encoding="UTF-8" standalone="no"?>
<!DOCTYPE svg PUBLIC "-//W3C//DTD SVG 1.1//EN"
 "http://www.w3.org/Graphics/SVG/1.1/DTD/svg11.dtd">
<!-- Generated by graphviz version 2.43.0 (0)
 -->
<!-- Title: linko Pages: 1 -->
<svg width="1225pt" height="1013pt"
 viewBox="0.00 0.00 1225.00 1013.00" xmlns="http://www.w3.org/2000/svg" xmlns:xlink="http://www.w3.org/1999/xlink">
<g id="graph0" class="graph" transform="scale(1 1) rotate(0) translate(4 1009)">
<title>linko</title>
<polygon fill="white" stroke="transparent" points="-4,4 -4,-1009 1221,-1009 1221,4 -4,4"/>
<g id="clust1" class="cluster">
<title>cluster_L</title>
<polygon fill="none" stroke="black" points="8,-828 8,-997 604,-997 604,-828 8,-828"/>
</g>
<!-- File: linko -->
<g id="node1" class="node">
<title>File: linko</title>
<g id="a_node1"><a xlink:title="linko">
<polygon fill="#f8f8f8" stroke="black" points="595.5,-989 16.5,-989 16.5,-836 595.5,-836 595.5,-989"/>
<text text-anchor="start" x="24.5" y="-972.2" font-family="Times,serif" font-size="16.00">File: linko</text>
<text text-anchor="start" x="24.5" y="-954.2" font-family="Times,serif" font-size="16.00">Build ID: 6f58dee2d9a403dcf65d5a88deba7adef8666889</text>
<text text-anchor="start" x="24.5" y="-936.2" font-family="Times,serif" font-size="16.00">Type: inuse_space</text>
<text text-anchor="start" x="24.5" y="-918.2" font-family="Times,serif" font-size="16.00">Time: 2026&#45;08&#45;31 21:27:15 CEST</text>
<text text-anchor="start" x="24.5" y="-900.2" font-family="Times,serif" font-size="16.00">Duration: 30.01s, Total samples = 3648.42kB </text>
<text text-anchor="start" x="24.5" y="-882.2" font-family="Times,serif" font-size="16.00">Showing nodes accounting for 3648.42kB, 100% of 3648.42kB total</text>
<text text-anchor="start" x="24.5" y="-845.2" font-family="Times,serif" font-size="16.00">See https://git.io/JfYMW for how to read the graph</text>
</a>
</g>
</g>
<!-- N1 -->
<g id="node1" class="node">
<title>N1</title>
<g id="a_node1"><a xlink:title="net/http.HandlerFunc.ServeHTTP (3136.19kB)">
<polygon fill="#edd6d5" stroke="#b20700" points="730.5,-690 613.5,-690 613.5,-646 730.5,-646 730.5,-690"/>
<text text-anchor="middle" x="672" y="-679.6" font-family="Times,serif" font-size="8.00">http</text>
<text text-anchor="middle" x="672" y="-670.6" font-family="Times,serif" font-size="8.00">HandlerFunc</text>
<text text-anchor="middle" x="672" y="-661.6" font-family="Times,serif" font-size="8.00">ServeHTTP</text>
<text text-anchor="middle" x="672" y="-652.6" font-family="Times,serif" font-size="8.00">0 of 3136.19kB (85.96%)</text>
</a>
</g>
</g>
<!-- N6 -->
<g id="node6" class="node">
<title>N6</title>
<g id="a_node6"><a xlink:title="main.(*server).handlerRedirect (3136.19kB)">
<polygon fill="#edd6d5" stroke="#b20700" points="415.5,-581.5 298.5,-581.5 298.5,-537.5 415.5,-537.5 415.5,-581.5"/>
<text text-anchor="middle" x="357" y="-571.1" font-family="Times,serif" font-size="8.00">main</text>
<text text-anchor="middle" x="357" y="-562.1" font-family="Times,serif" font-size="8.00">(*server)</text>
<text text-anchor="middle" x="357" y="-553.1" font-family="Times,serif" font-size="8.00">handlerRedirect</text>
<text text-anchor="middle" x="357" y="-544.1" font-family="Times,serif" font-size="8.00">0 of 3136.19kB (85.96%)</text>
</a>
</g>
</g>
<!-- N1&#45;&gt;N6 -->
<g id="edge9" class="edge">
<title>N1&#45;&gt;N6</title>
<g id="a_edge9"><a xlink:title="net/http.HandlerFunc.ServeHTTP &#45;&gt; main.(*server).handlerRedirect (3136.19kB)">
<path fill="none" stroke="#b20700" stroke-width="5" d="M613.24,-664.76C542.68,-661.06 429.49,-651.55 395,-628 382.13,-619.21 373.13,-604.55 367.12,-591.13"/>
<polygon fill="#b20700" stroke="#b20700" stroke-width="5" points="371.1,-589.29 363.27,-581.69 363,-592.6 371.1,-589.29"/>
</a>
</g>
<g id="a_edge9&#45;label"><a xlink:title="net/http.HandlerFunc.ServeHTTP &#45;&gt; main.(*server).handlerRedirect (3136.19kB)">
<text text-anchor="middle" x="436" y="-616.8" font-family="Times,serif" font-size="14.00"> 3136.19kB</text>
</a>
</g>
</g>
<!-- N7 -->
<g id="node7" class="node">
<title>N7</title>
<g id="a_node7"><a xlink:title="main.newServer.metricsMiddleware.func10 (3136.19kB)">
<polygon fill="#edd6d5" stroke="#b20700" points="592.5,-586 475.5,-586 475.5,-533 592.5,-533 592.5,-586"/>
<text text-anchor="middle" x="534" y="-575.6" font-family="Times,serif" font-size="8.00">main</text>
<text text-anchor="middle" x="534" y="-566.6" font-family="Times,serif" font-size="8.00">newServer</text>
<text text-anchor="middle" x="534" y="-557.6" font-family="Times,serif" font-size="8.00">metricsMiddleware</text>
<text text-anchor="middle" x="534" y="-548.6" font-family="Times,serif" font-size="8.00">func10</text>
<text text-anchor="middle" x="534" y="-539.6" font-family="Times,serif" font-size="8.00">0 of 3136.19kB (85.96%)</text>
</a>
</g>
</g>
<!-- N1&#45;&gt;N7 -->
<g id="edge10" class="edge">
<title>N1&#45;&gt;N7</title>
<g id="a_edge10"><a xlink:title="net/http.HandlerFunc.ServeHTTP &#45;&gt; main.newServer.metricsMiddleware.func10 (3136.19kB)">
<path fill="none" stroke="#b20700" stroke-width="5" d="M613.32,-662.7C564.67,-657.77 501,-647.69 485,-628 476.17,-617.14 481,-604.85 490.43,-593.77"/>
<polygon fill="#b20700" stroke="#b20700" stroke-width="5" points="493.81,-596.56 497.58,-586.32 487.5,-590.5 493.81,-596.56"/>
</a>
</g>
<g id="a_edge10&#45;label"><a xlink:title="net/http.HandlerFunc.ServeHTTP &#45;&gt; main.newServer.metricsMiddleware.func10 (3136.19kB)">
<text text-anchor="middle" x="526" y="-616.8" font-family="Times,serif" font-size="14.00"> 3136.19kB</text>
</a>
</g>
</g>
<!-- N8 -->
<g id="node8" class="node">
<title>N8</title>
<g id="a_node8"><a xlink:title="main.newServer.newServer.requestLogger.func7.func8 (3136.19kB)">
<polygon fill="#edd6d5" stroke="#b20700" points="749.5,-595 632.5,-595 632.5,-524 749.5,-524 749.5,-595"/>
<text text-anchor="middle" x="691" y="-584.6" font-family="Times,serif" font-size="8.00">main</text>
<text text-anchor="middle" x="691" y="-575.6" font-family="Times,serif" font-size="8.00">newServer</text>
<text text-anchor="middle" x="691" y="-566.6" font-family="Times,serif" font-size="8.00">newServer</text>
<text text-anchor="middle" x="691" y="-557.6" font-family="Times,serif" font-size="8.00">requestLogger</text>
<text text-anchor="middle" x="691" y="-548.6" font-family="Times,serif" font-size="8.00">func7</text>
<text text-anchor="middle" x="691" y="-539.6" font-family="Times,serif" font-size="8.00">func8</text>
<text text-anchor="middle" x="691" y="-530.6" font-family="Times,serif" font-size="8.00">0 of 3136.19kB (85.96%)</text>
</a>
</g>
</g>
<!-- N1&#45;&gt;N8 -->
<g id="edge11" class="edge">
<title>N1&#45;&gt;N8</title>
<g id="a_edge11"><a xlink:title="net/http.HandlerFunc.ServeHTTP &#45;&gt; main.newServer.newServer.requestLogger.func7.func8 (3136.19kB)">
<path fill="none" stroke="#b20700" stroke-width="5" d="M670.88,-645.83C670.73,-635.8 671.11,-623.71 673,-613 673.47,-610.33 674.05,-607.62 674.72,-604.9"/>
<polygon fill="#b20700" stroke="#b20700" stroke-width="5" points="678.98,-605.92 677.44,-595.12 670.55,-603.58 678.98,-605.92"/>
</a>
</g>
<g id="a_edge11&#45;label"><a xlink:title="net/http.HandlerFunc.ServeHTTP &#45;&gt; main.newServer.newServer.requestLogger.func7.func8 (3136.19kB)">
<text text-anchor="middle" x="714" y="-616.8" font-family="Times,serif" font-size="14.00"> 3136.19kB</text>
</a>
</g>
</g>
<!-- N9 -->
<g id="node9" class="node">
<title>N9</title>
<g id="a_node9"><a xlink:title="main.newServer.requestIDMiddleware.func9 (3136.19kB)">
<polygon fill="#edd6d5" stroke="#b20700" points="903.5,-586 786.5,-586 786.5,-533 903.5,-533 903.5,-586"/>
<text text-anchor="middle" x="845" y="-575.6" font-family="Times,serif" font-size="8.00">main</text>
<text text-anchor="middle" x="845" y="-566.6" font-family="Times,serif" font-size="8.00">newServer</text>
<text text-anchor="middle" x="845" y="-557.6" font-family="Times,serif" font-size="8.00">requestIDMiddleware</text>
<text text-anchor="middle" x="845" y="-548.6" font-family="Times,serif" font-size="8.00">func9</text>
<text text-anchor="middle" x="845" y="-539.6" font-family="Times,serif" font-size="8.00">0 of 3136.19kB (85.96%)</text>
</a>
</g>
</g>
<!-- N1&#45;&gt;N9 -->
<g id="edge12" class="edge">
<title>N1&#45;&gt;N9</title>
<g id="a_edge12"><a xlink:title="net/http.HandlerFunc.ServeHTTP &#45;&gt; main.newServer.requestIDMiddleware.func9 (3136.19kB)">
<path fill="none" stroke="#b20700" stroke-width="5" d="M721.7,-645.92C732.91,-640.54 744.57,-634.45 755,-628 764.15,-622.34 765.45,-619.53 774,-613 782.86,-606.23 792.42,-599.07 801.56,-592.29"/>
<polygon fill="#b20700" stroke="#b20700" stroke-width="5" points="804.37,-595.65 809.81,-586.18 799.17,-588.61 804.37,-595.65"/>
</a>
</g>
<g id="a_edge12&#45;label"><a xlink:title="net/http.HandlerFunc.ServeHTTP &#45;&gt; main.newServer.requestIDMiddleware.func9 (3136.19kB)">
<text text-anchor="middle" x="815" y="-616.8" font-family="Times,serif" font-size="14.00"> 3136.19kB</text>
</a>
</g>
</g>
<!-- N2 -->
<g id="node2" class="node">
<title>N2</title>
<g id="a_node2"><a xlink:title="internal/bytealg.MakeNoZero (3136.19kB)">
<polygon fill="#edd6d5" stroke="#b20700" points="488,-173 226,-173 226,-87 488,-87 488,-173"/>
<text text-anchor="middle" x="357" y="-149.8" font-family="Times,serif" font-size="24.00">bytealg</text>
<text text-anchor="middle" x="357" y="-123.8" font-family="Times,serif" font-size="24.00">MakeNoZero</text>
<text text-anchor="middle" x="357" y="-97.8" font-family="Times,serif" font-size="24.00">3136.19kB (85.96%)</text>
</a>
</g>
</g>
<!-- NN2_0 -->
<g id="NN2_0" class="node">
<title>NN2_0</title>
<g id="a_NN2_0"><a xlink:title="3136.19kB">
<polygon fill="#f8f8f8" stroke="black" points="384,-36 334,-36 330,-32 330,0 380,0 384,-4 384,-36"/>
<polyline fill="none" stroke="black" points="380,-32 330,-32 "/>
<polyline fill="none" stroke="black" points="380,-32 380,0 "/>
<polyline fill="none" stroke="black" points="380,-32 384,-36 "/>
<text text-anchor="middle" x="357" y="-16.1" font-family="Times,serif" font-size="8.00">21.25kB</text>
</a>
</g>
</g>
<!-- N2&#45;&gt;NN2_0 -->
<g id="edge1" class="edge">
<title>N2&#45;&gt;NN2_0</title>
<g id="a_edge1"><a xlink:title="3136.19kB">
<path fill="none" stroke="black" d="M357,-86.79C357,-73.2 357,-58.5 357,-46.28"/>
<polygon fill="black" stroke="black" points="360.5,-46.27 357,-36.27 353.5,-46.27 360.5,-46.27"/>
</a>
</g>
<g id="a_edge1&#45;label"><a xlink:title="3136.19kB">
<text text-anchor="middle" x="398" y="-57.8" font-family="Times,serif" font-size="14.00"> 3136.19kB</text>
</a>
</g>
</g>
<!-- N3 -->
<g id="node3" class="node">
<title>N3</title>
<g id="a_node3"><a xlink:title="net/http.(*conn).serve (3136.19kB)">
<polygon fill="#edd6d5" stroke="#b20700" points="730.5,-934.5 613.5,-934.5 613.5,-890.5 730.5,-890.5 730.5,-934.5"/>
<text text-anchor="middle" x="672" y="-924.1" font-family="Times,serif" font-size="8.00">http</text>
<text text-anchor="middle" x="672" y="-915.1" font-family="Times,serif" font-size="8.00">(*conn)</text>
<text text-anchor="middle" x="672" y="-906.1" font-family="Times,serif" font-size="8.00">serve</text>
<text text-anchor="middle" x="672" y="-897.1" font-family="Times,serif" font-size="8.00">0 of 3136.19kB (85.96%)</text>
</a>
</g>
</g>
<!-- N11 -->
<g id="node11" class="node">
<title>N11</title>
<g id="a_node11"><a xlink:title="net/http.serverHandler.ServeHTTP (3136.19kB)">
<polygon fill="#edd6d5" stroke="#b20700" points="730.5,-785 613.5,-785 613.5,-741 730.5,-741 730.5,-785"/>
<text text-anchor="middle" x="672" y="-774.6" font-family="Times,serif" font-size="8.00">http</text>
<text text-anchor="middle" x="672" y="-765.6" font-family="Times,serif" font-size="8.00">serverHandler</text>
<text text-anchor="middle" x="672" y="-756.6" font-family="Times,serif" font-size="8.00">ServeHTTP</text>
<text text-anchor="middle" x="672" y="-747.6" font-family="Times,serif" font-size="8.00">0 of 3136.19kB (85.96%)</text>
</a>
</g>
</g>
<!-- N3&#45;&gt;N11 -->
<g id="edge8" class="edge">
<title>N3&#45;&gt;N11</title>
<g id="a_edge8"><a xlink:title="net/http.(*conn).serve &#45;&gt; net/http.serverHandler.ServeHTTP (3136.19kB)">
<path fill="none" stroke="#b20700" stroke-width="5" d="M672,-890.37C672,-865.5 672,-823.99 672,-795.37"/>
<polygon fill="#b20700" stroke="#b20700" stroke-width="5" points="676.38,-795.09 672,-785.09 667.63,-795.09 676.38,-795.09"/>
</a>
</g>
<g id="a_edge8&#45;label"><a xlink:title="net/http.(*conn).serve &#45;&gt; net/http.serverHandler.ServeHTTP (3136.19kB)">
<text text-anchor="middle" x="713" y="-806.8" font-family="Times,serif" font-size="14.00"> 3136.19kB</text>
</a>
</g>
</g>
<!-- N4 -->
<g id="node4" class="node">
<title>N4</title>
<g id="a_node4"><a xlink:title="runtime.mallocgc (512.23kB)">
<polygon fill="#ede3dc" stroke="#b26c35" points="1217,-378 1053,-378 1053,-319 1217,-319 1217,-378"/>
<text text-anchor="middle" x="1135" y="-362" font-family="Times,serif" font-size="15.00">runtime</text>
<text text-anchor="middle" x="1135" y="-345" font-family="Times,serif" font-size="15.00">mallocgc</text>
<text text-anchor="middle" x="1135" y="-328" font-family="Times,serif" font-size="15.00">512.23kB (14.04%)</text>
</a>
</g>
</g>
<!-- NN4_0 -->
<g id="NN4_0" class="node">
<title>NN4_0</title>
<g id="a_NN4_0"><a xlink:title="512.23kB">
<polygon fill="#f8f8f8" stroke="black" points="1162,-264 1112,-264 1108,-260 1108,-228 1158,-228 1162,-232 1162,-264"/>
<polyline fill="none" stroke="black" points="1158,-260 1108,-260 "/>
<polyline fill="none" stroke="black" points="1158,-260 1158,-228 "/>
<polyline fill="none" stroke="black" points="1158,-260 1162,-264 "/>
<text text-anchor="middle" x="1135" y="-244.1" font-family="Times,serif" font-size="8.00">480B</text>
</a>
</g>
</g>
<!-- N4&#45;&gt;NN4_0 -->
<g id="edge2" class="edge">
<title>N4&#45;&gt;NN4_0</title>
<g id="a_edge2"><a xlink:title="512.23kB">
<path fill="none" stroke="black" d="M1135,-318.97C1135,-305.05 1135,-288.38 1135,-274.58"/>
<polygon fill="black" stroke="black" points="1138.5,-274.25 1135,-264.25 1131.5,-274.25 1138.5,-274.25"/>
</a>
</g>
<g id="a_edge2&#45;label"><a xlink:title="512.23kB">
<text text-anchor="middle" x="1171.5" y="-289.8" font-family="Times,serif" font-size="14.00"> 512.23kB</text>
</a>
</g>
</g>
<!-- N5 -->
<g id="node5" class="node">
<title>N5</title>
<g id="a_node5"><a xlink:title="runtime.systemstack (512.23kB)">
<polygon fill="#ede3dc" stroke="#b26c35" points="1191,-930.5 1079,-930.5 1079,-894.5 1191,-894.5 1191,-930.5"/>
<text text-anchor="middle" x="1135" y="-919.6" font-family="Times,serif" font-size="8.00">runtime</text>
<text text-anchor="middle" x="1135" y="-910.6" font-family="Times,serif" font-size="8.00">systemstack</text>
<text text-anchor="middle" x="1135" y="-901.6" font-family="Times,serif" font-size="8.00">0 of 512.23kB (14.04%)</text>
</a>
</g>
</g>
<!-- N14 -->
<g id="node14" class="node">
<title>N14</title>
<g id="a_node14"><a xlink:title="runtime.newproc.func1 (512.23kB)">
<polygon fill="#ede3dc" stroke="#b26c35" points="1191,-785 1079,-785 1079,-741 1191,-741 1191,-785"/>
<text text-anchor="middle" x="1135" y="-774.6" font-family="Times,serif" font-size="8.00">runtime</text>
<text text-anchor="middle" x="1135" y="-765.6" font-family="Times,serif" font-size="8.00">newproc</text>
<text text-anchor="middle" x="1135" y="-756.6" font-family="Times,serif" font-size="8.00">func1</text>
<text text-anchor="middle" x="1135" y="-747.6" font-family="Times,serif" font-size="8.00">0 of 512.23kB (14.04%)</text>
</a>
</g>
</g>
<!-- N5&#45;&gt;N14 -->
<g id="edge21" class="edge">
<title>N5&#45;&gt;N14</title>
<g id="a_edge21"><a xlink:title="runtime.systemstack &#45;&gt; runtime.newproc.func1 (512.23kB)">
<path fill="none" stroke="#b26c35" d="M1135,-894.29C1135,-870.09 1135,-825.59 1135,-795.4"/>
<polygon fill="#b26c35" stroke="#b26c35" points="1138.5,-795.38 1135,-785.38 1131.5,-795.38 1138.5,-795.38"/>
</a>
</g>
<g id="a_edge21&#45;label"><a xlink:title="runtime.systemstack &#45;&gt; runtime.newproc.func1 (512.23kB)">
<text text-anchor="middle" x="1171.5" y="-806.8" font-family="Times,serif" font-size="14.00"> 512.23kB</text>
</a>
</g>
</g>
<!-- N18 -->
<g id="node18" class="node">
<title>N18</title>
<g id="a_node18"><a xlink:title="strings.Repeat (3136.19kB)">
<polygon fill="#edd6d5" stroke="#b20700" points="415.5,-469 298.5,-469 298.5,-433 415.5,-433 415.5,-469"/>
<text text-anchor="middle" x="357" y="-458.1" font-family="Times,serif" font-size="8.00">strings</text>
<text text-anchor="middle" x="357" y="-449.1" font-family="Times,serif" font-size="8.00">Repeat</text>
<text text-anchor="middle" x="357" y="-440.1" font-family="Times,serif" font-size="8.00">0 of 3136.19kB (85.96%)</text>
</a>
</g>
</g>
<!-- N6&#45;&gt;N18 -->
<g id="edge3" class="edge">
<title>N6&#45;&gt;N18</title>
<g id="a_edge3"><a xlink:title="main.(*server).handlerRedirect &#45;&gt; strings.Repeat (3136.19kB)">
<path fill="none" stroke="#b20700" stroke-width="5" d="M357,-537.46C357,-520.81 357,-497.45 357,-479.35"/>
<polygon fill="#b20700" stroke="#b20700" stroke-width="5" points="361.38,-479.14 357,-469.14 352.63,-479.14 361.38,-479.14"/>
</a>
</g>
<g id="a_edge3&#45;label"><a xlink:title="main.(*server).handlerRedirect &#45;&gt; strings.Repeat (3136.19kB)">
<text text-anchor="middle" x="398" y="-494.8" font-family="Times,serif" font-size="14.00"> 3136.19kB</text>
</a>
</g>
</g>
<!-- N7&#45;&gt;N1 -->
<g id="edge4" class="edge">
<title>N7&#45;&gt;N1</title>
<g id="a_edge4"><a xlink:title="main.newServer.metricsMiddleware.func10 &#45;&gt; net/http.HandlerFunc.ServeHTTP (3136.19kB)">
<path fill="none" stroke="#b20700" stroke-width="5" d="M549.31,-586.09C558.57,-599.89 571.39,-616.42 586,-628 592.14,-632.87 598.99,-637.28 606.07,-641.23"/>
<polygon fill="#b20700" stroke="#b20700" stroke-width="5" points="604.23,-645.21 615.12,-645.99 608.31,-637.47 604.23,-645.21"/>
</a>
</g>
<g id="a_edge4&#45;label"><a xlink:title="main.newServer.metricsMiddleware.func10 &#45;&gt; net/http.HandlerFunc.ServeHTTP (3136.19kB)">
<text text-anchor="middle" x="627" y="-616.8" font-family="Times,serif" font-size="14.00"> 3136.19kB</text>
</a>
</g>
</g>
<!-- N10 -->
<g id="node10" class="node">
<title>N10</title>
<g id="a_node10"><a xlink:title="net/http.(*ServeMux).ServeHTTP (3136.19kB)">
<polygon fill="#edd6d5" stroke="#b20700" points="969.5,-473 852.5,-473 852.5,-429 969.5,-429 969.5,-473"/>
<text text-anchor="middle" x="911" y="-462.6" font-family="Times,serif" font-size="8.00">http</text>
<text text-anchor="middle" x="911" y="-453.6" font-family="Times,serif" font-size="8.00">(*ServeMux)</text>
<text text-anchor="middle" x="911" y="-444.6" font-family="Times,serif" font-size="8.00">ServeHTTP</text>
<text text-anchor="middle" x="911" y="-435.6" font-family="Times,serif" font-size="8.00">0 of 3136.19kB (85.96%)</text>
</a>
</g>
</g>
<!-- N8&#45;&gt;N10 -->
<g id="edge5" class="edge">
<title>N8&#45;&gt;N10</title>
<g id="a_edge5"><a xlink:title="main.newServer.newServer.requestLogger.func7.func8 &#45;&gt; net/http.(*ServeMux).ServeHTTP (3136.19kB)">
<path fill="none" stroke="#b20700" stroke-width="5" d="M749.67,-530.1C783.38,-513.78 825.39,-493.45 858.08,-477.62"/>
<polygon fill="#b20700" stroke="#b20700" stroke-width="5" points="860.38,-481.36 867.48,-473.07 856.57,-473.49 860.38,-481.36"/>
</a>
</g>
<g id="a_edge5&#45;label"><a xlink:title="main.newServer.newServer.requestLogger.func7.func8 &#45;&gt; net/http.(*ServeMux).ServeHTTP (3136.19kB)">
<text text-anchor="middle" x="868" y="-494.8" font-family="Times,serif" font-size="14.00"> 3136.19kB</text>
</a>
</g>
</g>
<!-- N9&#45;&gt;N1 -->
<g id="edge6" class="edge">
<title>N9&#45;&gt;N1</title>
<g id="a_edge6"><a xlink:title="main.newServer.requestIDMiddleware.func9 &#45;&gt; net/http.HandlerFunc.ServeHTTP (3136.19kB)">
<path fill="none" stroke="#b20700" stroke-width="5" d="M860.2,-586.29C866.12,-600 869.47,-616.36 860,-628 844.95,-646.49 788.05,-656.49 740.75,-661.72"/>
<polygon fill="#b20700" stroke="#b20700" stroke-width="5" points="740,-657.4 730.52,-662.79 740.92,-666.1 740,-657.4"/>
</a>
</g>
<g id="a_edge6&#45;label"><a xlink:title="main.newServer.requestIDMiddleware.func9 &#45;&gt; net/http.HandlerFunc.ServeHTTP (3136.19kB)">
<text text-anchor="middle" x="906" y="-616.8" font-family="Times,serif" font-size="14.00"> 3136.19kB</text>
</a>
</g>
</g>
<!-- N10&#45;&gt;N1 -->
<g id="edge7" class="edge">
<title>N10&#45;&gt;N1</title>
<g id="a_edge7"><a xlink:title="net/http.(*ServeMux).ServeHTTP &#45;&gt; net/http.HandlerFunc.ServeHTTP (3136.19kB)">
<path fill="none" stroke="#b20700" stroke-width="5" d="M926.15,-473.25C949.97,-509.47 989.66,-583.55 951,-628 924.29,-658.7 814.4,-665.97 740.76,-667.29"/>
<polygon fill="#b20700" stroke="#b20700" stroke-width="5" points="740.56,-662.92 730.63,-667.44 740.69,-671.67 740.56,-662.92"/>
</a>
</g>
<g id="a_edge7&#45;label"><a xlink:title="net/http.(*ServeMux).ServeHTTP &#45;&gt; net/http.HandlerFunc.ServeHTTP (3136.19kB)">
<text text-anchor="middle" x="1008" y="-555.8" font-family="Times,serif" font-size="14.00"> 3136.19kB</text>
</a>
</g>
</g>
<!-- N11&#45;&gt;N1 -->
<g id="edge13" class="edge">
<title>N11&#45;&gt;N1</title>
<g id="a_edge13"><a xlink:title="net/http.serverHandler.ServeHTTP &#45;&gt; net/http.HandlerFunc.ServeHTTP (3136.19kB)">
<path fill="none" stroke="#b20700" stroke-width="5" d="M672,-740.9C672,-728.89 672,-713.62 672,-700.24"/>
<polygon fill="#b20700" stroke="#b20700" stroke-width="5" points="676.38,-700.02 672,-690.02 667.63,-700.02 676.38,-700.02"/>
</a>
</g>
<g id="a_edge13&#45;label"><a xlink:title="net/http.serverHandler.ServeHTTP &#45;&gt; net/http.HandlerFunc.ServeHTTP (3136.19kB)">
<text text-anchor="middle" x="713" y="-711.8" font-family="Times,serif" font-size="14.00"> 3136.19kB</text>
</a>
</g>
</g>
<!-- N12 -->
<g id="node12" class="node">
<title>N12</title>
<g id="a_node12"><a xlink:title="runtime.malg (512.23kB)">
<polygon fill="#ede3dc" stroke="#b26c35" points="1191,-577.5 1079,-577.5 1079,-541.5 1191,-541.5 1191,-577.5"/>
<text text-anchor="middle" x="1135" y="-566.6" font-family="Times,serif" font-size="8.00">runtime</text>
<text text-anchor="middle" x="1135" y="-557.6" font-family="Times,serif" font-size="8.00">malg</text>
<text text-anchor="middle" x="1135" y="-548.6" font-family="Times,serif" font-size="8.00">0 of 512.23kB (14.04%)</text>
</a>
</g>
</g>
<!-- N13 -->
<g id="node13" class="node">
<title>N13</title>
<g id="a_node13"><a xlink:title="runtime.newobject (512.23kB)">
<polygon fill="#ede3dc" stroke="#b26c35" points="1191,-469 1079,-469 1079,-433 1191,-433 1191,-469"/>
<text text-anchor="middle" x="1135" y="-458.1" font-family="Times,serif" font-size="8.00">runtime</text>
<text text-anchor="middle" x="1135" y="-449.1" font-family="Times,serif" font-size="8.00">newobject</text>
<text text-anchor="middle" x="1135" y="-440.1" font-family="Times,serif" font-size="8.00">0 of 512.23kB (14.04%)</text>
</a>
</g>
</g>
<!-- N12&#45;&gt;N13 -->
<g id="edge17" class="edge">
<title>N12&#45;&gt;N13</title>
<g id="a_edge17"><a xlink:title="runtime.malg &#45;&gt; runtime.newobject (512.23kB)">
<path fill="none" stroke="#b26c35" d="M1135,-541.39C1135,-524.62 1135,-498.8 1135,-479.21"/>
<polygon fill="#b26c35" stroke="#b26c35" points="1138.5,-479.07 1135,-469.07 1131.5,-479.07 1138.5,-479.07"/>
</a>
</g>
<g id="a_edge17&#45;label"><a xlink:title="runtime.malg &#45;&gt; runtime.newobject (512.23kB)">
<text text-anchor="middle" x="1171.5" y="-494.8" font-family="Times,serif" font-size="14.00"> 512.23kB</text>
</a>
</g>
</g>
<!-- N13&#45;&gt;N4 -->
<g id="edge18" class="edge">
<title>N13&#45;&gt;N4</title>
<g id="a_edge18"><a xlink:title="runtime.newobject &#45;&gt; runtime.mallocgc (512.23kB)">
<path fill="none" stroke="#b26c35" d="M1135,-432.95C1135,-420.76 1135,-403.84 1135,-388.42"/>
<polygon fill="#b26c35" stroke="#b26c35" points="1138.5,-388.07 1135,-378.07 1131.5,-388.07 1138.5,-388.07"/>
</a>
</g>
<g id="a_edge18&#45;label"><a xlink:title="runtime.newobject &#45;&gt; runtime.mallocgc (512.23kB)">
<text text-anchor="middle" x="1171.5" y="-399.8" font-family="Times,serif" font-size="14.00"> 512.23kB</text>
</a>
</g>
</g>
<!-- N15 -->
<g id="node15" class="node">
<title>N15</title>
<g id="a_node15"><a xlink:title="runtime.newproc1 (512.23kB)">
<polygon fill="#ede3dc" stroke="#b26c35" points="1191,-686 1079,-686 1079,-650 1191,-650 1191,-686"/>
<text text-anchor="middle" x="1135" y="-675.1" font-family="Times,serif" font-size="8.00">runtime</text>
<text text-anchor="middle" x="1135" y="-666.1" font-family="Times,serif" font-size="8.00">newproc1</text>
<text text-anchor="middle" x="1135" y="-657.1" font-family="Times,serif" font-size="8.00">0 of 512.23kB (14.04%)</text>
</a>
</g>
</g>
<!-- N14&#45;&gt;N15 -->
<g id="edge19" class="edge">
<title>N14&#45;&gt;N15</title>
<g id="a_edge19"><a xlink:title="runtime.newproc.func1 &#45;&gt; runtime.newproc1 (512.23kB)">
<path fill="none" stroke="#b26c35" d="M1135,-740.9C1135,-727.74 1135,-710.68 1135,-696.48"/>
<polygon fill="#b26c35" stroke="#b26c35" points="1138.5,-696.28 1135,-686.28 1131.5,-696.28 1138.5,-696.28"/>
</a>
</g>
<g id="a_edge19&#45;label"><a xlink:title="runtime.newproc.func1 &#45;&gt; runtime.newproc1 (512.23kB)">
<text text-anchor="middle" x="1171.5" y="-711.8" font-family="Times,serif" font-size="14.00"> 512.23kB</text>
</a>
</g>
</g>
<!-- N15&#45;&gt;N12 -->
<g id="edge20" class="edge">
<title>N15&#45;&gt;N12</title>
<g id="a_edge20"><a xlink:title="runtime.newproc1 &#45;&gt; runtime.malg (512.23kB)">
<path fill="none" stroke="#b26c35" d="M1135,-649.89C1135,-633.12 1135,-607.3 1135,-587.71"/>
<polygon fill="#b26c35" stroke="#b26c35" points="1138.5,-587.57 1135,-577.57 1131.5,-587.57 1138.5,-587.57"/>
</a>
</g>
<g id="a_edge20&#45;label"><a xlink:title="runtime.newproc1 &#45;&gt; runtime.malg (512.23kB)">
<text text-anchor="middle" x="1171.5" y="-616.8" font-family="Times,serif" font-size="14.00"> 512.23kB</text>
</a>
</g>
</g>
<!-- N16 -->
<g id="node16" class="node">
<title>N16</title>
<g id="a_node16"><a xlink:title="strings.(*Builder).Grow (3136.19kB)">
<polygon fill="#edd6d5" stroke="#b20700" points="415.5,-370.5 298.5,-370.5 298.5,-326.5 415.5,-326.5 415.5,-370.5"/>
<text text-anchor="middle" x="357" y="-360.1" font-family="Times,serif" font-size="8.00">strings</text>
<text text-anchor="middle" x="357" y="-351.1" font-family="Times,serif" font-size="8.00">(*Builder)</text>
<text text-anchor="middle" x="357" y="-342.1" font-family="Times,serif" font-size="8.00">Grow</text>
<text text-anchor="middle" x="357" y="-333.1" font-family="Times,serif" font-size="8.00">0 of 3136.19kB (85.96%)</text>
</a>
</g>
</g>
<!-- N17 -->
<g id="node17" class="node">
<title>N17</title>
<g id="a_node17"><a xlink:title="strings.(*Builder).grow (3136.19kB)">
<polygon fill="#edd6d5" stroke="#b20700" points="415.5,-268 298.5,-268 298.5,-224 415.5,-224 415.5,-268"/>
<text text-anchor="middle" x="357" y="-257.6" font-family="Times,serif" font-size="8.00">strings</text>
<text text-anchor="middle" x="357" y="-248.6" font-family="Times,serif" font-size="8.00">(*Builder)</text>
<text text-anchor="middle" x="357" y="-239.6" font-family="Times,serif" font-size="8.00">grow</text>
<text text-anchor="middle" x="357" y="-230.6" font-family="Times,serif" font-size="8.00">0 of 3136.19kB (85.96%)</text>
</a>
</g>
</g>
<!-- N16&#45;&gt;N17 -->
<g id="edge14" class="edge">
<title>N16&#45;&gt;N17</title>
<g id="a_edge14"><a xlink:title="strings.(*Builder).Grow &#45;&gt; strings.(*Builder).grow (3136.19kB)">
<path fill="none" stroke="#b20700" stroke-width="5" d="M357,-326.19C357,-312.33 357,-294.02 357,-278.5"/>
<polygon fill="#b20700" stroke="#b20700" stroke-width="5" points="361.38,-278.28 357,-268.28 352.63,-278.28 361.38,-278.28"/>
</a>
</g>
<g id="a_edge14&#45;label"><a xlink:title="strings.(*Builder).Grow &#45;&gt; strings.(*Builder).grow (3136.19kB)">
<text text-anchor="middle" x="398" y="-289.8" font-family="Times,serif" font-size="14.00"> 3136.19kB</text>
</a>
</g>
</g>
<!-- N17&#45;&gt;N2 -->
<g id="edge15" class="edge">
<title>N17&#45;&gt;N2</title>
<g id="a_edge15"><a xlink:title="strings.(*Builder).grow &#45;&gt; internal/bytealg.MakeNoZero (3136.19kB)">
<path fill="none" stroke="#b20700" stroke-width="5" d="M357,-223.82C357,-212.43 357,-197.81 357,-183.57"/>
<polygon fill="#b20700" stroke="#b20700" stroke-width="5" points="361.38,-183.32 357,-173.32 352.63,-183.32 361.38,-183.32"/>
</a>
</g>
<g id="a_edge15&#45;label"><a xlink:title="strings.(*Builder).grow &#45;&gt; internal/bytealg.MakeNoZero (3136.19kB)">
<text text-anchor="middle" x="398" y="-194.8" font-family="Times,serif" font-size="14.00"> 3136.19kB</text>
</a>
</g>
</g>
<!-- N18&#45;&gt;N16 -->
<g id="edge16" class="edge">
<title>N18&#45;&gt;N16</title>
<g id="a_edge16"><a xlink:title="strings.Repeat &#45;&gt; strings.(*Builder).Grow (3136.19kB)">
<path fill="none" stroke="#b20700" stroke-width="5" d="M357,-432.95C357,-418.76 357,-398.17 357,-381"/>
<polygon fill="#b20700" stroke="#b20700" stroke-width="5" points="361.38,-380.83 357,-370.83 352.63,-380.83 361.38,-380.83"/>
</a>
</g>
<g id="a_edge16&#45;label"><a xlink:title="strings.Repeat &#45;&gt; strings.(*Builder).Grow (3136.19kB)">
<text text-anchor="middle" x="398" y="-399.8" font-family="Times,serif" font-size="14.00"> 3136.19kB</text>
</a>
</g>
</g>
</g>
</svg>
